<?xml version="1.0" encoding="utf-8"?>
<!-- Generator: Adobe Illustrator 25.2.1, SVG Export Plug-In . SVG Version: 6.00 Build 0)  -->
<svg version="1.1" id="Layer_1" xmlns="http://www.w3.org/2000/svg" xmlns:xlink="http://www.w3.org/1999/xlink" x="0px" y="0px"
	 viewBox="0 0 927.4 258.7" style="enable-background:new 0 0 927.4 258.7;" xml:space="preserve">
<style type="text/css">
	.st0{fill:#222222;}
	.st1{fill:none;}
	.st2{fill:#F2C994;}
	.st3{fill:#ED4642;}
	.st4{fill:#17BCB5;}
	.st5{fill:#DF392F;}
	.st6{fill:#16342F;}
	.st7{fill:#15291A;}
</style>
<g>
	<g>
		<path class="st0" d="M354.1,95.6c-2.3-3-5.2-5.3-8.6-6.8c-3.5-1.8-7.4-2.8-11.3-2.6h-36.5v86.1h19.6v-27.8h17.3
			c3.9,0.1,7.7-0.7,11.3-2.2c3.3-1.5,6.3-3.7,8.6-6.4c2.4-2.8,4.3-6,5.6-9.4c1.2-3.5,1.8-7.2,1.9-10.9c0-3.6-0.8-7.2-2.3-10.5
			C358.7,101.7,356.4,98.7,354.1,95.6z M339.8,124.2c-1.5,1.8-3.7,2.9-6,3h-16.2v-23.7H333c1.2-0.1,2.4,0.1,3.4,0.8
			c1.1,0.8,2.3,1.1,3,2.2c1.1,1,1.9,2.3,2.3,3.8c0.5,1.7,0.7,3.5,0.8,5.3C342.5,119.3,341.7,122.3,339.8,124.2z"/>
		<path class="st0" d="M426.7,135.9c1.8-1.7,3.3-3.8,4.5-6c1.2-2.1,2.1-4.4,2.6-6.8c0.8-2.4,1.2-5,1.1-7.5c0-3.6-0.8-7.2-2.3-10.5
			c-1.4-3.5-3.4-6.7-6-9.4c-2.5-2.9-5.5-5.2-9-6.8c-3.5-1.8-7.4-2.7-11.3-2.6h-38.8v86.1H388v-27.8h12.8l17.3,27.8h22.2l-19.5-32
			C423,139.2,425,137.7,426.7,135.9z M411.7,123.9c-1.3,2.1-3.6,3.3-6,3.4h-18.1l-0.4-23.3h17.7c2.5-0.1,4.8,1.1,6.4,3
			c2,2.3,3.1,5.2,3,8.3C414.3,119,413.6,121.6,411.7,123.9L411.7,123.9z"/>
		<rect x="445.2" y="86.2" class="st0" width="19.9" height="85.8"/>
		<polygon class="st0" points="529.4,136.6 489.5,86.2 474.1,86.2 474.1,172 494.1,172 494.1,123.1 533.6,172 549.3,172 549.3,86.2 
			529.4,86.2 		"/>
		<polygon class="st0" points="554.2,103.5 580.6,103.5 580.6,172 600.5,172 600.5,103.5 626.5,103.5 626.5,86.2 554.2,86.2 		"/>
		<polygon class="st0" points="631.3,172 651.3,172 651.3,138.1 682.9,138.1 682.9,122 651.3,122 651.3,103.5 689.6,103.5 
			689.6,86.2 631.3,86.2 		"/>
		<path class="st0" d="M749.4,129.9c0.1,3.2-0.1,6.3-0.8,9.4c-0.4,2.8-1.4,5.5-3,7.9c-1.5,2.2-3.4,4.2-5.6,5.6
			c-2.6,1.6-5.6,2.4-8.7,2.2c-2.9,0-5.7-0.6-8.3-1.9c-2.2-1.5-4.2-3.4-5.6-5.7c-2.8-5.3-4.2-11.3-4.1-17.3v-44h-19.9v44
			c0,5.5,0.7,10.9,2.2,16.2c1.3,4.9,3.6,9.5,6.8,13.5c3.1,4,7.1,7.2,11.7,9.4c5.6,2.4,11.6,3.5,17.7,3.4c6.4,0,12.4-1.1,16.9-3.4
			c4.5-2.1,8.5-5.2,11.7-9c3.1-4,5.4-8.6,6.8-13.5c1.6-5.4,2.3-11,2.3-16.6v-44h-19.9v43.8H749.4z"/>
		<polygon class="st0" points="799.8,154.7 799.8,86.2 779.9,86.2 779.9,172 779.9,172 841.2,172 841.2,154.7 		"/>
	</g>
	<rect class="st1" width="927.4" height="258.7"/>
	<g>
		<polygon class="st2" points="86.1,172.6 136.5,86.2 186.8,172.6 		"/>
		<polygon class="st3" points="131.6,172.6 182,86.2 232.3,172.6 		"/>
		<polygon class="st4" points="177.3,172.6 227.7,86.2 278,172.6 		"/>
		<polygon class="st5" points="131.6,172.6 187,172.6 159.2,125.3 		"/>
		<polygon class="st6" points="176.9,172.6 232.2,172.6 204.8,125.4 		"/>
		<polygon class="st7" points="176.9,172.6 187.1,172.6 182,164.1 		"/>
	</g>
</g>
</svg>
